<svg width="113px" height="40px" viewBox="0 0 102 37" version="1.1" xmlns="http://www.w3.org/2000/svg" xmlns:xlink="http://www.w3.org/1999/xlink"> <defs> <polygon id="path-1" points="0 0 11.6768 0 11.6768 27.017 0 27.017"></polygon> </defs> <g id="Main" stroke="none" stroke-width="1" fill="none" fill-rule="evenodd"> <g id="index-2.1" transform="translate(-320.000000, -61.000000)"> <g id="header"> <g transform="translate(320.000000, 61.000000)" id="left"> <g transform="translate(0.000000, -0.000000)"> <g id="logo"> <path d="M56.8306,22.2845 L51.4116,6.9285 L46.1016,6.9285 L53.1906,27.0165 L55.1606,27.0165 C53.9026,30.5805 53.1606,31.6445 50.7606,31.6445 L48.6596,31.6445 L48.6596,36.2325 L51.1466,36.2325 C56.0346,36.2325 58.0066,33.9975 59.7616,29.0235 L67.5596,6.9285 L62.2496,6.9285 L56.8306,22.2845 Z" id="Fill-1" fill="#FFFFFF"></path> <g id="Group-5" transform="translate(90.323100, 0.000000)"> <mask id="mask-2" fill="white"> <use xlink:href="#path-1"></use> </mask> <g id="Clip-4"></g> <path d="M11.677,11.517 L11.677,6.929 L7.944,6.929 L7.944,0 L2.875,2.943 L2.875,6.929 L0,6.929 L0,11.517 L2.875,11.517 L2.875,21.652 C2.875,24.447 3.924,27.017 7.557,27.017 L11.677,27.017 L11.677,22.428 L9.403,22.428 C8.42,22.428 7.944,21.974 7.944,20.969 L7.944,11.517 L11.677,11.517 Z" id="Fill-3" fill="#FFFFFF" mask="url(#mask-2)"></path> </g> <path d="M10.087,10.9808 C13.103,10.9808 15.293,13.5228 15.293,17.0248 C15.293,20.5008 13.103,23.0228 10.087,23.0228 C7.45,23.0228 4.789,21.1828 4.789,17.0718 C4.789,12.5758 7.643,10.9808 10.087,10.9808 M10.647,6.3778 C9.079,6.3778 6.892,6.8868 5.068,8.7398 L5.068,6.9288 L0,6.9288 L0,35.3868 L5.068,35.3868 L5.068,25.1448 C7.322,27.4988 10.124,27.6258 10.693,27.6258 C15.491,27.6258 20.454,23.5908 20.454,16.8388 C20.454,13.7878 19.448,11.1508 17.545,9.2158 C15.745,7.3858 13.295,6.3778 10.647,6.3778" id="Fill-6" fill="#FFFFFF"></path> <path d="M33.234,23.0233 C30.218,23.0233 28.029,20.5013 28.029,17.0253 C28.029,13.5233 30.218,10.9813 33.234,10.9813 C35.678,10.9813 38.532,12.5763 38.532,17.0713 C38.532,21.1833 35.871,23.0233 33.234,23.0233 Z M38.253,8.7403 C36.476,6.8043 34.271,6.3783 32.674,6.3783 C26.991,6.3783 22.867,10.8163 22.867,16.9323 C22.867,19.7533 23.769,22.3853 25.408,24.3423 C27.206,26.4903 29.703,27.6253 32.628,27.6253 C34.193,27.6253 36.387,27.2173 38.253,25.3543 L38.253,27.0193 L43.321,27.0193 L43.321,6.9283 L38.253,6.9283 L38.253,8.7403 Z" id="Fill-8" fill="#FFFFFF"></path> <path d="M75.3809,8.7401 L75.3809,6.9281 L70.3129,6.9281 L70.3129,27.0191 L75.3809,27.0191 L75.3809,16.5961 C75.3809,13.4231 76.8829,10.9471 79.2789,10.9471 C81.3549,10.9471 82.6209,12.2101 82.6209,14.8171 L82.6209,27.0191 L87.6899,27.0191 L87.6899,14.0991 C87.6899,8.8581 84.9239,6.3781 80.6069,6.3781 C77.0269,6.3781 75.3809,8.7401 75.3809,8.7401" id="Fill-10" fill="#FFFFFF"></path> </g> </g> </g> </g> </g> </g> </svg>
